<?xml version="1.0" encoding="utf-8"?>
<svg viewBox="0 0 27.965 27.965" style="enable-background:new 0 0 27.965 27.965;" xmlns="http://www.w3.org/2000/svg" xmlns:bx="https://boxy-svg.com">
  <path d="M 445 55 m -14.013 0 a 14.013 14.017 0 1 0 28.026 0 a 14.013 14.017 0 1 0 -28.026 0 Z M 445 55 m -10.696 0 a 10.696 10.696 0 0 1 21.392 0 a 10.696 10.696 0 0 1 -21.392 0 Z" transform="matrix(-0.9971150755882264, 0.0758960098028183, -0.0758960098028183, -0.9971160888671876, 461.8674621582031, 35.053348541259766)" style="stroke-linejoin: round; fill: rgb(7, 145, 0); fill-rule: evenodd; paint-order: stroke; stroke-width: 0;" bx:shape="ring 445 55 10.696 10.696 14.013 14.017 1@ca837cbd"/>
  <path style="stroke-linejoin: round; fill: rgb(7, 145, 0); fill-rule: evenodd; paint-order: stroke; stroke: rgb(255, 255, 255);" d="M 5.87 10.816 L 14.018 21.241 L 27.004 8.858 L 25.545 5.942 L 14.018 16.829 L 7.507 8.183 C 7.507 8.183 5.835 10.816 5.87 10.816 Z" transform="matrix(1, 0, 0, 1, 0, 4.440892098500626e-16)"/>
</svg>