<?xml version="1.0" encoding="utf-8"?>
<svg viewBox="0 0 383.947 383.947" style="enable-background:new 0 0 383.947 383.947;" xmlns="http://www.w3.org/2000/svg">
  <path d="M 374.437 89.92 L 293.965 9.448 C 288.141 3.647 280.253 0.393 272.034 0.4 L 30.978 0.4 C 13.883 0.433 0.033 14.284 0 31.378 L 0 352.907 C 0.033 370.001 13.883 383.852 30.978 383.885 L 352.506 383.885 C 369.602 383.852 383.451 370.001 383.484 352.907 L 383.484 111.791 C 383.495 103.588 380.239 95.718 374.437 89.92 Z M 240.816 24.368 L 240.816 89.56 L 81.91 89.56 L 81.91 24.368 Z M 116.004 359.917 L 116.004 248.048 L 267.48 248.048 L 267.48 359.917 Z M 359.516 352.907 C 359.516 356.778 356.377 359.917 352.506 359.917 L 291.448 359.917 L 291.448 236.063 C 291.448 229.445 286.083 224.08 279.464 224.08 L 104.02 224.08 C 97.401 224.08 92.036 229.445 92.036 236.063 L 92.036 359.917 L 30.978 359.917 C 27.106 359.917 23.967 356.778 23.967 352.907 L 23.967 31.378 C 23.967 27.507 27.106 24.368 30.978 24.368 L 57.942 24.368 L 57.942 101.544 C 57.942 108.162 63.307 113.528 69.925 113.528 L 252.799 113.528 C 259.419 113.528 264.784 108.162 264.784 101.544 L 264.784 24.368 L 272.034 24.368 C 273.89 24.391 275.668 25.119 277.007 26.405 L 357.479 106.877 C 358.789 108.175 359.523 109.945 359.516 111.791 Z M 100.365 67.809 L 100.365 49.833 C 100.365 40.608 110.351 34.842 118.341 39.455 C 122.048 41.596 124.333 45.552 124.333 49.833 L 124.333 67.809 C 124.333 77.034 114.346 82.8 106.356 78.187 C 102.649 76.047 100.365 72.09 100.365 67.809 Z" fill="rgb(9,0,151)" transform="matrix(1, 0, 0, 1, 0, 0)"/>
</svg>